# xmcd
#
# Track frame offsets:
# 150
# 28428
# 73545
# 96380
# 137271
# 199938
# 273571
# 297646
#
# Disc length: 4607 seconds
#
# Revision: 0
# Processed by: cddbd v1.4PL0 Copyright (c) Steve Scherf et al.
# Submitted via: Audion 3.0.2 (http://www.panic.com/audion/)
#
DISCID=8311fd08
DTITLE=Beethoven, Toscanini, Karajan - Symphonies 3 - 5 - 6 - 7 - 9, CD 2 
DYEAR=1900
DGENRE=
TTITLE0=N.5 1 - Allegro con brio
TTITLE1=N.5 2 - Andante con moto
TTITLE2=N.5 3 - Allegro
TTITLE3=N.5 4 - Allegro
TTITLE4=N.6 1 - Marcia funebre. Adagio assai
TTITLE5=N.6 2 - Scherzo. Allegro vivace
TTITLE6=N.6 3 - Finale. Allegro molto poco andante. Presto
TTITLE7=N.6 4 - Allegro con brio
EXTD=
EXTT0=
EXTT1=
EXTT2=
EXTT3=
EXTT4=
EXTT5=
EXTT6=
EXTT7=
PLAYORDER=
